<mxfile host="app.diagrams.net" modified="2021-08-19T19:22:48.613Z" agent="5.0 (Windows NT 10.0; Win64; x64) AppleWebKit/537.36 (KHTML, like Gecko) Chrome/92.0.4515.159 Safari/537.36" etag="rU-J0wQk48_Dlrn7Kxu_" version="14.9.8" type="github">
  <diagram id="tHFMW-TO9fMDlyoBt2ry" name="Page-1">
    <mxGraphModel dx="1422" dy="794" grid="1" gridSize="10" guides="1" tooltips="1" connect="1" arrows="1" fold="1" page="1" pageScale="1" pageWidth="827" pageHeight="1169" math="0" shadow="0">
      <root>
        <mxCell id="0" />
        <mxCell id="1" parent="0" />
        <mxCell id="rTGVcy8YXU-YceMm4XYp-9" value="" style="endArrow=classic;startArrow=classic;html=1;" edge="1" parent="1">
          <mxGeometry width="50" height="50" relative="1" as="geometry">
            <mxPoint x="400" y="170" as="sourcePoint" />
            <mxPoint x="400" y="120" as="targetPoint" />
          </mxGeometry>
        </mxCell>
        <mxCell id="rTGVcy8YXU-YceMm4XYp-11" value="connect your wallet" style="rounded=1;whiteSpace=wrap;html=1;absoluteArcSize=1;arcSize=14;strokeWidth=2;" vertex="1" parent="1">
          <mxGeometry x="520" y="110" width="100" height="100" as="geometry" />
        </mxCell>
        <mxCell id="rTGVcy8YXU-YceMm4XYp-13" value="" style="endArrow=classic;html=1;entryX=-0.01;entryY=0.6;entryDx=0;entryDy=0;entryPerimeter=0;" edge="1" parent="1" target="rTGVcy8YXU-YceMm4XYp-11">
          <mxGeometry width="50" height="50" relative="1" as="geometry">
            <mxPoint x="400" y="170" as="sourcePoint" />
            <mxPoint x="450" y="120" as="targetPoint" />
          </mxGeometry>
        </mxCell>
        <mxCell id="rTGVcy8YXU-YceMm4XYp-15" value="start" style="strokeWidth=2;html=1;shape=mxgraph.flowchart.start_2;whiteSpace=wrap;" vertex="1" parent="1">
          <mxGeometry x="350" y="20" width="100" height="100" as="geometry" />
        </mxCell>
        <mxCell id="rTGVcy8YXU-YceMm4XYp-19" value="find your partner" style="rounded=1;whiteSpace=wrap;html=1;absoluteArcSize=1;arcSize=14;strokeWidth=2;" vertex="1" parent="1">
          <mxGeometry x="520" y="370" width="100" height="100" as="geometry" />
        </mxCell>
        <mxCell id="rTGVcy8YXU-YceMm4XYp-21" value="If not an account then create" style="strokeWidth=2;html=1;shape=mxgraph.flowchart.decision;whiteSpace=wrap;" vertex="1" parent="1">
          <mxGeometry x="690" y="120" width="100" height="100" as="geometry" />
        </mxCell>
        <mxCell id="rTGVcy8YXU-YceMm4XYp-22" value="" style="endArrow=classic;startArrow=classic;html=1;entryX=0;entryY=0.5;entryDx=0;entryDy=0;entryPerimeter=0;exitX=1.01;exitY=0.59;exitDx=0;exitDy=0;exitPerimeter=0;" edge="1" parent="1" source="rTGVcy8YXU-YceMm4XYp-11" target="rTGVcy8YXU-YceMm4XYp-21">
          <mxGeometry width="50" height="50" relative="1" as="geometry">
            <mxPoint x="640" y="185" as="sourcePoint" />
            <mxPoint x="690" y="135" as="targetPoint" />
            <Array as="points" />
          </mxGeometry>
        </mxCell>
        <mxCell id="rTGVcy8YXU-YceMm4XYp-23" value="send partner notfication" style="rounded=1;whiteSpace=wrap;html=1;absoluteArcSize=1;arcSize=14;strokeWidth=2;" vertex="1" parent="1">
          <mxGeometry x="520" y="500" width="100" height="100" as="geometry" />
        </mxCell>
        <mxCell id="rTGVcy8YXU-YceMm4XYp-26" value="torus page" style="strokeWidth=2;html=1;shape=mxgraph.flowchart.display;whiteSpace=wrap;" vertex="1" parent="1">
          <mxGeometry x="520" y="240" width="100" height="60" as="geometry" />
        </mxCell>
        <mxCell id="rTGVcy8YXU-YceMm4XYp-27" value="" style="endArrow=classic;html=1;exitX=0.5;exitY=1;exitDx=0;exitDy=0;" edge="1" parent="1" source="rTGVcy8YXU-YceMm4XYp-11">
          <mxGeometry width="50" height="50" relative="1" as="geometry">
            <mxPoint x="540" y="260" as="sourcePoint" />
            <mxPoint x="570" y="239" as="targetPoint" />
          </mxGeometry>
        </mxCell>
        <mxCell id="rTGVcy8YXU-YceMm4XYp-28" value="our blockchain" style="strokeWidth=2;html=1;shape=mxgraph.flowchart.database;whiteSpace=wrap;" vertex="1" parent="1">
          <mxGeometry x="690" y="270" width="90" height="80" as="geometry" />
        </mxCell>
        <mxCell id="rTGVcy8YXU-YceMm4XYp-29" value="" style="endArrow=classic;html=1;entryX=0;entryY=0.5;entryDx=0;entryDy=0;entryPerimeter=0;" edge="1" parent="1" target="rTGVcy8YXU-YceMm4XYp-28">
          <mxGeometry width="50" height="50" relative="1" as="geometry">
            <mxPoint x="610" y="290" as="sourcePoint" />
            <mxPoint x="650" y="260" as="targetPoint" />
          </mxGeometry>
        </mxCell>
        <mxCell id="rTGVcy8YXU-YceMm4XYp-30" value="" style="endArrow=classic;html=1;exitX=0.5;exitY=1;exitDx=0;exitDy=0;exitPerimeter=0;" edge="1" parent="1" source="rTGVcy8YXU-YceMm4XYp-26" target="rTGVcy8YXU-YceMm4XYp-19">
          <mxGeometry width="50" height="50" relative="1" as="geometry">
            <mxPoint x="640" y="410" as="sourcePoint" />
            <mxPoint x="690" y="360" as="targetPoint" />
          </mxGeometry>
        </mxCell>
        <mxCell id="rTGVcy8YXU-YceMm4XYp-32" value="" style="endArrow=classic;html=1;exitX=0.5;exitY=1;exitDx=0;exitDy=0;" edge="1" parent="1" source="rTGVcy8YXU-YceMm4XYp-19">
          <mxGeometry width="50" height="50" relative="1" as="geometry">
            <mxPoint x="545" y="510" as="sourcePoint" />
            <mxPoint x="570" y="496" as="targetPoint" />
          </mxGeometry>
        </mxCell>
        <mxCell id="rTGVcy8YXU-YceMm4XYp-33" value="" style="endArrow=classic;html=1;exitX=-0.02;exitY=0.59;exitDx=0;exitDy=0;exitPerimeter=0;" edge="1" parent="1" source="rTGVcy8YXU-YceMm4XYp-23" target="rTGVcy8YXU-YceMm4XYp-35">
          <mxGeometry width="50" height="50" relative="1" as="geometry">
            <mxPoint x="440" y="575" as="sourcePoint" />
            <mxPoint x="440" y="560" as="targetPoint" />
          </mxGeometry>
        </mxCell>
        <mxCell id="rTGVcy8YXU-YceMm4XYp-35" value="Match" style="rounded=1;whiteSpace=wrap;html=1;absoluteArcSize=1;arcSize=14;strokeWidth=2;" vertex="1" parent="1">
          <mxGeometry x="380" y="510" width="100" height="100" as="geometry" />
        </mxCell>
        <mxCell id="rTGVcy8YXU-YceMm4XYp-36" value="" style="endArrow=classic;html=1;exitX=0;exitY=0.5;exitDx=0;exitDy=0;" edge="1" parent="1" source="rTGVcy8YXU-YceMm4XYp-35">
          <mxGeometry width="50" height="50" relative="1" as="geometry">
            <mxPoint x="320" y="585" as="sourcePoint" />
            <mxPoint x="320" y="560" as="targetPoint" />
          </mxGeometry>
        </mxCell>
        <mxCell id="rTGVcy8YXU-YceMm4XYp-37" value="Get an NFT" style="rounded=1;whiteSpace=wrap;html=1;absoluteArcSize=1;arcSize=14;strokeWidth=2;" vertex="1" parent="1">
          <mxGeometry x="220" y="510" width="100" height="100" as="geometry" />
        </mxCell>
        <mxCell id="rTGVcy8YXU-YceMm4XYp-38" value="" style="endArrow=classic;html=1;exitX=0;exitY=0.5;exitDx=0;exitDy=0;" edge="1" parent="1" source="rTGVcy8YXU-YceMm4XYp-37">
          <mxGeometry width="50" height="50" relative="1" as="geometry">
            <mxPoint x="170" y="580" as="sourcePoint" />
            <mxPoint x="160" y="560" as="targetPoint" />
          </mxGeometry>
        </mxCell>
        <mxCell id="rTGVcy8YXU-YceMm4XYp-39" value="view NFT" style="rounded=1;whiteSpace=wrap;html=1;absoluteArcSize=1;arcSize=14;strokeWidth=2;" vertex="1" parent="1">
          <mxGeometry x="60" y="510" width="100" height="100" as="geometry" />
        </mxCell>
      </root>
    </mxGraphModel>
  </diagram>
</mxfile>
